<?xml version="1.0" encoding="UTF-8"?>
<svg width="960px" height="960px" viewBox="0 0 960 960" version="1.1" xmlns="http://www.w3.org/2000/svg" xmlns:xlink="http://www.w3.org/1999/xlink">
    <title>com.dyson/drivers/dyson_link_fan/assets/icon</title>
    <g id="com.dyson/drivers/dyson_link_fan/assets/icon" stroke="none" stroke-width="1" fill="none" fill-rule="evenodd" stroke-linejoin="round">
        <path d="M478.93001,21.7602656 C507.129817,21.7602656 532.72964,33.3206111 551.26988,52.0219878 C569.74766,70.6603619 581.19948,96.3873466 581.19948,124.744756 L581.19948,124.744756 L581.19948,602.423835 C581.19948,624.444674 574.260132,644.917139 562.516027,661.685941 L562.516027,661.685941 L562.516,851.657 L563.086431,851.867961 C569.57644,854.290875 574.880034,856.968957 578.986522,859.725172 L579.407061,860.010569 C591.700068,868.446586 595.506093,878.369493 595.461746,887.433539 L595.46121,891.810184 C595.427221,898.998827 593.737538,909.100052 579.452503,918.945616 C573.839262,922.814387 565.274054,927.013795 552.059522,930.652501 C532.698766,936.005943 507.036879,939.03385 479.739626,939.03385 C452.455549,939.03385 426.804536,935.948208 407.457702,930.6629 C394.206216,927.0143 385.640402,922.814593 380.026917,918.945578 C365.590221,908.99529 364.018069,898.783933 364.018069,891.581752 L364.018069,887.372849 C364.018069,877.776166 368.578274,868.50639 378.452391,861.153252 C382.563174,858.092001 387.746597,855.387176 393.180047,853.129677 L393.6,852.957 L393.600203,659.074967 C383.080366,643.05224 376.838019,623.824599 376.664265,603.24387 L376.660539,602.361015 L376.660539,124.744756 C376.660539,96.3873466 388.112359,70.6603619 406.590139,52.0219878 C425.130379,33.3206111 450.730202,21.7602656 478.93001,21.7602656 Z" id="Path" stroke="#000000" stroke-width="40"></path>
        <path d="M479.739767,640.28385 C509.680653,640.28385 534.065497,616.588535 534.065497,587.44391 L534.065497,131.416244 C534.065497,102.271618 509.680653,78.5763033 479.739767,78.5763033 C449.798882,78.5763033 425.414037,102.271618 425.414037,131.416244 L425.414037,587.382682 C425.414037,616.527307 449.798882,640.28385 479.739767,640.28385 Z" id="Path" stroke="#000000" stroke-width="20" stroke-linecap="round"></path>
        <path d="M553.897786,830.149417 L553.897786,867.977966 C552.174985,870.227991 539.951296,882.532816 477.11005,882.743756 C414.268805,882.532816 402.045116,870.227991 400.322315,867.977966 L400.322315,830.21973 L400.404353,830.21973" id="Path" stroke="#000000" stroke-width="20" stroke-linecap="round"></path>
        <path d="M553.825258,837.93961 C550.486124,839.725387 542.260453,842.687165 522.63286,844.603609 C520.433918,844.821387 518.153534,844.908498 515.954592,844.864943 L515.87315,844.864943 C501.050653,844.472943 488.834309,844.472943 477.676715,844.472943 C466.519121,844.472943 454.302777,844.472943 439.398838,844.864943 C437.118453,844.908498 434.919512,844.821387 432.639127,844.603609 C413.011535,842.687165 404.704421,839.725387 401.446729,837.93961 L401.446729,748.476502 L401.365287,748.476502 C401.446729,748.040946 401.446729,747.431169 401.446729,746.73428 L401.446729,731.272058 C410.079612,734.059613 430.60307,738.066724 477.676715,738.066724 C524.75036,738.066724 545.273818,734.016058 553.906701,731.272058 L553.906701,837.93961 L553.825258,837.93961 Z" id="Path" stroke="#000000" stroke-width="20" stroke-linecap="round"></path>
        <path d="M387.17373,107.763518 C387.17373,63.2366802 428.684522,27.0338505 479.739767,27.0338505 C530.795012,27.0338505 572.305805,63.2366802 572.305805,107.763518 L572.305805,610.044749 C572.305805,654.571587 530.795012,690.774417 479.739767,690.774417 L479.739767,690.774417 C428.684522,690.774417 387.17373,654.571587 387.17373,610.044749 L387.17373,107.763518 Z" id="Path" stroke="#000000" stroke-width="20" stroke-linecap="round"></path>
    </g>
</svg>