<svg height="960" viewBox="0 0 960 960" width="960" xmlns="http://www.w3.org/2000/svg"><g fill="none" fill-rule="evenodd"><path d="m628 122.108967h-296c-50.810197 0-92 41.189803-92 92v654c0 50.810197 41.189803 92 92 92h296c50.810197 0 92-41.189803 92-92v-654c0-50.810197-41.189803-92-92-92zm0 80c6.627417 0 12 5.372583 12 12v654c0 6.627417-5.372583 12-12 12h-296c-6.627417 0-12-5.372583-12-12v-654c0-6.627417 5.372583-12 12-12z" fill="#000" fill-rule="nonzero"/><g stroke="#000"><path d="m588.211198 489.391272c-2.671465-4.44345-7.364579-7.116745-12.563105-7.116745h-78.62771l18.375346-158.302428c.252706-2.167537-.43321-4.371199-1.913346-5.996851-1.444035-1.625653-3.537886-2.564919-5.74004-2.564919h-.324907c-2.85197 0-5.415132 1.553401-6.750864 4.046069l-130.179762 243.486618c-2.45486 4.587953-2.310456 9.970669.361008 14.450245 2.671465 4.44345 7.364579 7.116745 12.563106 7.116745l78.627709.036126-18.375346 158.302427c-.252706 2.167537.433211 4.371199 1.877246 5.996852 1.444035 1.625652 3.537886 2.564918 5.740039 2.564918h.324908c2.851969 0 5.415131-1.553401 6.750864-4.046068l130.179762-243.486619c2.454859-4.624078 2.346557-10.006794-.324908-14.48637z" fill="#000" fill-rule="nonzero" stroke-width="21"/><path d="m401.868331 37.5h158.342793c16.568542 0 30 13.4314575 30 30v95h-218.342793v-95c0-16.5685425 13.431458-30 30-30z" stroke-linecap="round" stroke-linejoin="round" stroke-width="80"/></g></g></svg>