<?xml version="1.0" encoding="utf-8"?>
<!-- Generator: Adobe Illustrator 24.1.2, SVG Export Plug-In . SVG Version: 6.00 Build 0)  -->
<svg version="1.1" id="Layer_1" xmlns="http://www.w3.org/2000/svg" xmlns:xlink="http://www.w3.org/1999/xlink" x="0px" y="0px"
	 viewBox="0 0 99 69.2" style="enable-background:new 0 0 99 69.2;" xml:space="preserve">
<g>
	<path d="M7.4,26.6c0.3-0.5,0.9-1,1.4-1.3c3.4-2.6,8.6-5.2,18.6-6.8V9.1c-8,1.1-14.3,2.9-20.4,6.7c-2.1,1.7-3.1,2.7-3.2,5
		C3.8,22.8,4.9,24.7,7.4,26.6z"/>
	<path d="M48.4,40.1c-10-0.1-19.2-1.1-28.6-3.3C3.2,32.9,1.1,27.5,0.2,25.6c-0.6,7.3,0.2,12.8,0.2,13.3c0.6,6.5,8,11.6,13.3,13.5
		c11,3.9,22.7,6,34.7,6.1v10.7l20.1-20.1L48.4,29V40.1z"/>
	<path d="M46.4,17.2c10,0,21.4,1.5,32.5,4.8c4.5,1.4,8.2,3.4,11.2,5.6c2.1-0.7,5-3.2,4.6-5.6c-1-6-10.1-9.5-11.6-10
		c-11-3.4-24.6-4.5-36.6-4.6V0L34,12.5l12.5,12.5V17.2z"/>
	<path d="M98.6,25.3c-0.5,2.8-5.1,8.8-24.1,12.6v19.6c7-1.6,15.2-5.6,19.7-9.5c1.8-1.6,2.9-3.8,3.6-5.4
		C99.7,37.7,98.8,28.3,98.6,25.3z"/>
</g>
</svg>
