<?xml version="1.0" encoding="utf-8"?>
<!-- Generator: Adobe Illustrator 21.0.0, SVG Export Plug-In . SVG Version: 6.00 Build 0)  -->
<svg version="1.1" id="svg2501" xmlns:svg="http://www.w3.org/2000/svg"
	 xmlns="http://www.w3.org/2000/svg" xmlns:xlink="http://www.w3.org/1999/xlink" x="0px" y="0px" viewBox="0 0 1010 383.6"
	 style="enable-background:new 0 0 1010 383.6;" xml:space="preserve">
<path id="path2455" d="M144.7,190.4c0,25-20.3,45.2-45.2,45.2c-25,0-45.3-20.3-45.3-45.2c0-25,20.3-45.3,45.3-45.3l45.2,0
	L144.7,190.4z M194.8,2.7h-50.1v92.6c-17,0-34.8,0-45.2,0c-52.6,0-95.1,42.6-95.1,95.1c0,52.5,42.6,95.1,95.1,95.1
	c52.5,0,95.4-42.6,95.4-95.1c0-26.3,0-95.2,0-95.2L194.8,2.7z"/>
<path id="path2459" d="M700.3,235.8c25.1,0,45.5-20.3,45.5-45.4c0-25.1-20.4-45.4-45.5-45.4c-25.1,0-45.4,20.3-45.4,45.4
	C654.9,215.5,675.2,235.8,700.3,235.8 M605.4,190.4c0-52.5,42.6-95.1,95.1-95.1c52.6,0,95.1,42.6,95.1,95.1
	c0,52.5-42.6,95.1-95.1,95.1C647.9,285.5,605.4,242.9,605.4,190.4"/>
<path id="path2463" d="M955.5,190.5c0-24.8-20.1-44.9-44.9-44.9c-24.9,0-45,20.1-45,44.9c0,12.2,0,91.1,0,91.1
	c-25.5,0-50.1,0.1-50.1,0.1s0-64.9,0-91.2c0-52.5,42.6-95.1,95.1-95.1c52.5,0,95,42.6,95,95.1c0,26.8,0,91.1,0,91.1s-24.6,0-50.1,0
	C955.5,281.6,955.5,203,955.5,190.5"/>
<path id="path2467" d="M488.3,157.3c-7.3-4.7-4.9-13.5,6.8-16.7c15.5-4.3,41.2-0.8,64.1,9.3l23.7-32.3
	c-10.3-8.6-32.4-19.5-65.1-21.7c0,0-54.7-6.8-76.8,34.7c0,0-19.6,38.8,19.1,63c23.5,14.7,64.4,19.9,76.8,26.9
	c10.6,5.9,7.1,17.1-8.6,20.7c-25.9,5.8-60.8-8.9-72.4-17.7l-23.9,33c16.1,12.4,36.7,23,69.3,28.3c0,0,51.4,8.9,79.8-26.5
	c5.3-6.5,28.5-50.2-18.3-75.1C539.5,170.9,500.6,165.3,488.3,157.3"/>
<path id="path2471" d="M254.6,318.7c2.1,1.3,25.5,17.3,48.1,17.8c54.4,1.1,57.9-55.5,57.9-69c-10.5,11-31.7,17.9-45,17.9
	c-52.5,0-94.6-41.1-94.6-93.7c0-26,0-92.9,0-92.9s24.5,0,50.1,0.1c0,0,0.1,81.5,0.1,92.8c0,24.8,20.1,44.9,44.9,44.9
	c24.8,0,44.9-20.1,44.9-44.9c0-10.2,0-92.8,0-92.8c25.6,0,50.2-0.1,50.2-0.1l0,92.9c0,82.3,4,166.8-76.1,185.9
	c-60.4,14.4-103-23.4-105.2-25.1L254.6,318.7z"/>
</svg>
