<?xml version="1.0" encoding="UTF-8"?>
<svg width="960px" height="960px" viewBox="0 0 960 960" version="1.1" xmlns="http://www.w3.org/2000/svg" xmlns:xlink="http://www.w3.org/1999/xlink">
    <title>com.dyson/drivers/dyson_am/assets/icon</title>
    <g id="com.dyson/drivers/dyson_am/assets/icon" stroke="none" stroke-width="1" fill="none" fill-rule="evenodd">
        <circle id="Oval" fill="#000000" cx="478.887707" cy="863.70922" r="13.5839243"></circle>
        <circle id="Oval" fill="#000000" cx="525.908983" cy="863.70922" r="13.5839243"></circle>
        <circle id="Oval" fill="#000000" cx="432.911348" cy="863.70922" r="13.5839243"></circle>
        <path d="M481.468728,24.4940898 C520.758342,24.4940898 558.904592,32.2166528 594.769303,47.3816919 C629.482254,62.0095753 660.574447,83.0031412 687.299403,109.704082 C714.029338,136.409998 735.046262,167.547078 749.68769,202.171782 C764.864801,238.005332 772.656028,276.1198 772.656028,315.375213 C772.656028,354.636044 764.925442,392.7544 749.744211,428.592872 C735.103674,463.21095 714.088619,494.343688 687.361946,521.046343 C669.521282,538.870976 649.743169,554.114401 628.243788,566.652488 L628.243788,566.652488 L628.243788,886.075351 C628.086758,886.819359 627.937532,887.244807 627.920619,887.337742 C627.821195,887.884082 627.952885,900.796072 605.640245,914.508875 C598.570793,918.853588 588.41312,923.557585 573.668842,927.503661 C554.153593,932.726614 525.682354,936.843537 484.1082,936.999859 C433.238611,936.796894 395.592953,930.531368 371.812979,919.529528 C350.562739,909.724582 344.719488,898.896969 342.617553,894.784295 C341.517476,892.556676 341.194999,891.576872 341.051833,891.176368 L341.051833,891.176368 L339.886081,887.915195 L339.76427,569.483008 C316.333875,556.422403 294.82765,540.218695 275.638054,521.046343 C248.908118,494.340428 227.891195,463.203348 213.249767,428.578644 C198.072671,392.745093 190.343972,354.631252 190.343972,315.375213 C190.343972,276.114382 198.074558,237.996026 213.255789,202.157553 C227.896326,167.539476 248.911381,136.406738 275.638054,109.704082 C302.366151,83.0000031 333.528841,62.0029938 368.182381,47.3756956 C404.042178,32.2147675 442.183911,24.4940898 481.468728,24.4940898 Z" id="Path" stroke="#000000" stroke-width="40" stroke-linejoin="round"></path>
        <circle id="Oval" stroke="#000000" stroke-width="20" stroke-linecap="round" stroke-linejoin="round" cx="479.932624" cy="315.12766" r="203.758865"></circle>
        <circle id="Oval" stroke="#000000" stroke-width="20" stroke-linecap="round" stroke-linejoin="round" cx="481.5" cy="314.605201" r="281.605201"></circle>
        <path d="M638.003711,616.835541 L638.000966,789.657636 C631.46216,792.049931 624.788899,794.241261 617.983238,796.224141 C581.859526,806.749054 520.17488,796.224141 480.26436,796.224141 C463.82261,796.224141 447.156882,797.986542 430.660226,799.713695 L427.750886,800.017755 L425.729323,800.227679 L425.729323,800.227679 L423.709851,800.435449 C394.107075,803.46331 365.231635,805.55715 339.377739,796.224141 C336.904543,795.331341 334.446014,794.406755 332.00243,793.450898 L332.000369,620.57082 C376.163795,645.857332 427.311503,660.309336 481.830476,660.309336 C538.979847,660.309336 592.424795,644.429148 638.003711,616.835541 Z" id="Combined-Shape" stroke="#000000" stroke-width="20" stroke-linecap="round" stroke-linejoin="round"></path>
    </g>
</svg>